<svg width="832" xmlns="http://www.w3.org/2000/svg" height="888" fill="none"><g data-testid="Group"><g data-testid="Rectangle"><rect rx="0" ry="0" x="120" y="91" width="590" height="709" class="fills"/><g class="strokes"><g class="inner-stroke-shape"><defs><clipPath id="b"><use href="#a"/></clipPath><rect rx="0" ry="0" x="120" y="91" width="590" height="709" id="a" style="fill: none; stroke-width: 60; stroke: rgb(255, 255, 255); stroke-opacity: 1;"/></defs><use href="#a" clip-path="url('#b')"/></g></g></g><g data-testid="Rectangle"><rect rx="0" ry="0" x="194" y="165" width="177" height="208" class="fills"/><g class="strokes"><g class="inner-stroke-shape"><defs><clipPath id="d"><use href="#c"/></clipPath><rect rx="0" ry="0" x="194" y="165" width="177" height="208" id="c" style="fill: none; stroke-width: 60; stroke: rgb(255, 255, 255); stroke-opacity: 1;"/></defs><use href="#c" clip-path="url('#d')"/></g></g></g><rect rx="0" ry="0" x="415" y="165" width="221" height="30" style="fill: rgb(255, 255, 255); fill-opacity: 1;" class="fills" data-testid="Rectangle"/><rect rx="0" ry="0" x="415" y="254" width="221" height="30" style="fill: rgb(255, 255, 255); fill-opacity: 1;" class="fills" data-testid="Rectangle"/><rect rx="0" ry="0" x="415" y="343" width="221" height="30" style="fill: rgb(255, 255, 255); fill-opacity: 1;" class="fills" data-testid="Rectangle"/><rect rx="0" ry="0" x="194" y="431" width="442" height="30" style="fill: rgb(255, 255, 255); fill-opacity: 1;" class="fills" data-testid="Rectangle"/><rect rx="0" ry="0" x="194" y="519" width="205" height="30" style="fill: rgb(255, 255, 255); fill-opacity: 1;" class="fills" data-testid="Rectangle"/><g data-testid="Ellipse"><circle cx="532.5" cy="578.5" r="102.5" class="fills"/><g class="strokes"><g class="inner-stroke-shape"><defs><clipPath id="f"><use href="#e"/></clipPath><circle cx="532.5" cy="578.5" id="e" style="fill: none; stroke-width: 60; stroke: rgb(255, 255, 255); stroke-opacity: 1;" r="102.5"/></defs><use href="#e" clip-path="url('#f')"/></g></g></g><path d="m457 648-34 60 49 4 27 42 47-79-31-6-19 30-7-14-17-3 15-23-30-11Z" style="fill: rgb(255, 255, 255); fill-opacity: 1;" class="fills" data-testid="Path"/><path d="m611 641 40 67-49 4-27 42-47-79 31-6 19 30 7-14 17-3-15-23 24-18ZM405 92l110-53 29 58 32-1-46-96-195 93 70-1ZM432 796l-110 53-29-58-32 1 46 96 195-93-70 1ZM707 380l125 260-123 59-2-33 85-40-84-178-1-68ZM125 516 0 256l123-59 2 33-85 40 84 178 1 68Z" style="fill: rgb(255, 255, 255); fill-opacity: 1;" class="fills" data-testid="Path"/></g></svg>